<svg xmlns="http://www.w3.org/2000/svg" width="40" height="40" xmlns:v="https://vecta.io/nano"><path fill="hsla(34, 29%, 81%, 0)" d="M0 0h40v40H0z"/><path d="M46.231 19.999a5.937 7.48 0 0 1-5.937 7.48A5.937 7.48 0 0 1 34.357 20a5.937 7.48 0 0 1 5.937-7.48A5.937 7.48 0 0 1 46.231 20zm-40.421 0a5.937 7.48 0 0 1-5.937 7.48A5.937 7.48 0 0 1-6.064 20a5.937 7.48 0 0 1 5.937-7.48A5.937 7.48 0 0 1 5.81 20zm20.21 20.285a5.937 7.48 0 0 1-5.937 7.48 5.937 7.48 0 0 1-5.936-7.48 5.937 7.48 0 0 1 5.936-7.48 5.937 7.48 0 0 1 5.937 7.48zm0-40.57a5.937 7.48 0 0 1-5.937 7.48 5.937 7.48 0 0 1-5.936-7.48 5.937 7.48 0 0 1 5.936-7.48 5.937 7.48 0 0 1 5.937 7.48zM-5.732 46.942c1.676-.944 3.556-1.6 5.478-1.587s3.796.69 5.463 1.653 3.156 2.202 4.637 3.434 2.97 2.471 4.641 3.428 3.547 1.627 5.47 1.627 3.8-.67 5.47-1.627 3.161-2.195 4.642-3.428 2.968-2.472 4.636-3.434 3.54-1.642 5.463-1.653 3.802.643 5.479 1.587V33.628c-1.677.944-3.557 1.6-5.479 1.587s-3.796-.69-5.463-1.653-3.156-2.202-4.636-3.434-2.971-2.471-4.642-3.428-3.546-1.627-5.47-1.627-3.8.67-5.47 1.627-3.161 2.195-4.641 3.428-2.97 2.472-4.637 3.434-3.54 1.641-5.463 1.653-3.802-.643-5.478-1.587zM45.647-6.943c-1.677.944-3.557 1.6-5.479 1.587s-3.796-.69-5.463-1.653-3.156-2.202-4.636-3.434-2.971-2.471-4.642-3.428-3.546-1.627-5.47-1.627-3.8.67-5.47 1.627-3.161 2.195-4.641 3.428-2.97 2.472-4.637 3.434-3.54 1.642-5.463 1.653-3.802-.643-5.478-1.587V6.372c1.676-.944 3.556-1.6 5.478-1.587s3.796.69 5.463 1.653S8.365 8.64 9.846 9.872s2.97 2.471 4.641 3.428 3.547 1.627 5.47 1.627 3.8-.67 5.47-1.627 3.161-2.195 4.642-3.428 2.968-2.472 4.636-3.434 3.54-1.642 5.463-1.653 3.802.643 5.479 1.587z" stroke-width=".5" stroke="hsla(34, 10%, 60%, 1)" fill="none"/></svg>