<svg xmlns="http://www.w3.org/2000/svg" xmlns:xlink="http://www.w3.org/1999/xlink" width="608" height="608" preserveAspectRatio="none"><g fill="none" stroke="rgba(137, 126, 88, 1)" mask="url(&quot;#a&quot;)"><use xlink:href="#b" x="30" y="30"/><use xlink:href="#c" x="30" y="90" stroke-width="2"/><use xlink:href="#d" x="30" y="150"/><use xlink:href="#d" x="30" y="210"/><use xlink:href="#e" x="30" y="270"/><use xlink:href="#f" x="30" y="330"/><use xlink:href="#d" x="30" y="390"/><use xlink:href="#e" x="30" y="450"/><use xlink:href="#f" x="30" y="510"/><use xlink:href="#f" x="30" y="570"/><use xlink:href="#g" x="30" y="630"/><use xlink:href="#e" x="90" y="30"/><use xlink:href="#g" x="90" y="90"/><use xlink:href="#b" x="90" y="150"/><use xlink:href="#g" x="90" y="210"/><use xlink:href="#e" x="90" y="270"/><use xlink:href="#d" x="90" y="330"/><use xlink:href="#d" x="90" y="390"/><use xlink:href="#e" x="90" y="450"/><use xlink:href="#e" x="90" y="510"/><use xlink:href="#d" x="90" y="570"/><use xlink:href="#f" x="90" y="630"/><use xlink:href="#f" x="150" y="30"/><use xlink:href="#e" x="150" y="90"/><use xlink:href="#d" x="150" y="150"/><use xlink:href="#d" x="150" y="210"/><use xlink:href="#g" x="150" y="270"/><use xlink:href="#g" x="150" y="330"/><use xlink:href="#g" x="150" y="390"/><use xlink:href="#e" x="150" y="450"/><use xlink:href="#f" x="150" y="510"/><use xlink:href="#e" x="150" y="570"/><use xlink:href="#f" x="150" y="630"/><use xlink:href="#b" x="210" y="30"/><use xlink:href="#f" x="210" y="90"/><use xlink:href="#f" x="210" y="150"/><use xlink:href="#d" x="210" y="210"/><use xlink:href="#e" x="210" y="270"/><use xlink:href="#b" x="210" y="330"/><use xlink:href="#h" x="210" y="390" stroke-width="3"/><use xlink:href="#f" x="210" y="450"/><use xlink:href="#b" x="210" y="510"/><use xlink:href="#b" x="210" y="570"/><use xlink:href="#f" x="210" y="630"/><use xlink:href="#b" x="270" y="30"/><use xlink:href="#b" x="270" y="90"/><use xlink:href="#f" x="270" y="150"/><use xlink:href="#b" x="270" y="210"/><use xlink:href="#e" x="270" y="270"/><use xlink:href="#f" x="270" y="330"/><use xlink:href="#e" x="270" y="390"/><use xlink:href="#f" x="270" y="450"/><use xlink:href="#g" x="270" y="510"/><use xlink:href="#b" x="270" y="570"/><use xlink:href="#f" x="270" y="630"/><use xlink:href="#e" x="330" y="30"/><use xlink:href="#d" x="330" y="90"/><use xlink:href="#b" x="330" y="150"/><use xlink:href="#c" x="330" y="210" stroke-width="2"/><use xlink:href="#e" x="330" y="270"/><use xlink:href="#e" x="330" y="330"/><use xlink:href="#f" x="330" y="390"/><use xlink:href="#f" x="330" y="450"/><use xlink:href="#c" x="330" y="510" stroke-width="2"/><use xlink:href="#b" x="330" y="570"/><use xlink:href="#f" x="330" y="630"/><use xlink:href="#d" x="390" y="30"/><use xlink:href="#e" x="390" y="90"/><use xlink:href="#b" x="390" y="150"/><use xlink:href="#e" x="390" y="210"/><use xlink:href="#e" x="390" y="270"/><use xlink:href="#e" x="390" y="330"/><use xlink:href="#g" x="390" y="390"/><use xlink:href="#g" x="390" y="450"/><use xlink:href="#e" x="390" y="510"/><use xlink:href="#h" x="390" y="570" stroke-width="3"/><use xlink:href="#f" x="390" y="630"/><use xlink:href="#e" x="450" y="30"/><use xlink:href="#b" x="450" y="90"/><use xlink:href="#e" x="450" y="150"/><use xlink:href="#f" x="450" y="210"/><use xlink:href="#e" x="450" y="270"/><use xlink:href="#d" x="450" y="330"/><use xlink:href="#e" x="450" y="390"/><use xlink:href="#b" x="450" y="450"/><use xlink:href="#d" x="450" y="510"/><use xlink:href="#d" x="450" y="570"/><use xlink:href="#f" x="450" y="630"/><use xlink:href="#b" x="510" y="30"/><use xlink:href="#e" x="510" y="90"/><use xlink:href="#b" x="510" y="150"/><use xlink:href="#e" x="510" y="210"/><use xlink:href="#f" x="510" y="270"/><use xlink:href="#c" x="510" y="330" stroke-width="2"/><use xlink:href="#g" x="510" y="390"/><use xlink:href="#f" x="510" y="450"/><use xlink:href="#f" x="510" y="510"/><use xlink:href="#e" x="510" y="570"/><use xlink:href="#e" x="510" y="630"/><use xlink:href="#g" x="570" y="30"/><use xlink:href="#f" x="570" y="90"/><use xlink:href="#h" x="570" y="150" stroke-width="3"/><use xlink:href="#f" x="570" y="210"/><use xlink:href="#f" x="570" y="270"/><use xlink:href="#f" x="570" y="330"/><use xlink:href="#f" x="570" y="390"/><use xlink:href="#g" x="570" y="450"/><use xlink:href="#e" x="570" y="510"/><use xlink:href="#e" x="570" y="570"/><use xlink:href="#b" x="570" y="630"/><use xlink:href="#e" x="630" y="30"/><use xlink:href="#d" x="630" y="90"/><use xlink:href="#e" x="630" y="150"/><use xlink:href="#b" x="630" y="210"/><use xlink:href="#e" x="630" y="270"/><use xlink:href="#g" x="630" y="330"/><use xlink:href="#b" x="630" y="390"/><use xlink:href="#f" x="630" y="450"/><use xlink:href="#e" x="630" y="510"/><use xlink:href="#g" x="630" y="570"/><use xlink:href="#b" x="630" y="630"/></g><defs><path id="b" d="M-1 0a1 1 0 1 0 2 0 1 1 0 1 0-2 0"/><path id="g" d="M-3 0a3 3 0 1 0 6 0 3 3 0 1 0-6 0"/><path id="e" d="M-5 0A5 5 0 1 0 5 0 5 5 0 1 0-5 0"/><path id="d" d="m2-2-4 4z"/><path id="f" d="M6-6-6 6z"/><path id="h" d="m30-30-60 60z"/><path id="c" d="M-7 0A7 7 0 1 0 7 0 7 7 0 1 0-7 0"/><mask id="a"><path fill="#fff" d="M0 0h608v608H0z"/></mask></defs></svg>